<svg width="44" height="44" viewBox="0 0 44 44" fill="none" xmlns="http://www.w3.org/2000/svg">
<path fill-rule="evenodd" clip-rule="evenodd" d="M22 3.66675C11.88 3.66675 3.66667 11.8801 3.66667 22.0001C3.66667 32.1201 11.88 40.3334 22 40.3334C32.12 40.3334 40.3333 32.1201 40.3333 22.0001C40.3333 11.8801 32.12 3.66675 22 3.66675ZM22 9.16667C25.0433 9.16667 27.5 11.6233 27.5 14.6667C27.5 17.71 25.0433 20.1667 22 20.1667C18.9567 20.1667 16.5 17.71 16.5 14.6667C16.5 11.6233 18.9567 9.16667 22 9.16667ZM11 29.2965C13.365 32.8532 17.4167 35.1998 22 35.1998C26.5833 35.1998 30.635 32.8532 33 29.2965C32.945 25.6482 25.6483 23.6498 22 23.6498C18.3333 23.6498 11.055 25.6482 11 29.2965Z" fill="#9B51E0"/>
</svg>
